<?xml version="1.0" ?><!-- Uploaded to: SVG Repo, www.svgrepo.com, Generator: SVG Repo Mixer Tools -->
<svg width="800px" height="800px" viewBox="0 0 24 24" fill="none" xmlns="http://www.w3.org/2000/svg"><path clip-rule="evenodd" d="M12.0039 7C14.7653 7 17.0039 9.23858 17.0039 12H7.00388C7.00388 9.23858 9.24246 7 12.0039 7ZM5.00388 12.1144V12C5.00388 8.13401 8.13789 5 12.0039 5C15.8699 5 19.0039 8.13401 19.0039 12V12.1144C19.1939 12.1816 19.3739 12.2775 19.5372 12.4L22.2039 14.4C23.7415 15.5532 22.9259 18 21.0039 18H3.00388C1.08185 18 0.266259 15.5532 1.80388 14.4L4.47054 12.4C4.63387 12.2775 4.81386 12.1816 5.00388 12.1144ZM5.67055 14L3.00388 16H21.0039L18.3372 14H5.67055Z" fill="#000000" fill-rule="evenodd"/></svg>